{"title":"China Salesman 2018 720p BRRip x264 [MW]","magnet":"magnet:?xt=urn:btih:f5db6eee61d4eaf8407d2c750c7d41dfb412094c&dn=China+Salesman+2018+720p+BRRip+x264+%5BMW%5D&tr=udp%3A%2F%2Ftracker.leechers-paradise.org%3A6969&tr=udp%3A%2F%2Fzer0day.ch%3A1337&tr=udp%3A%2F%2Fopen.demonii.com%3A1337&tr=udp%3A%2F%2Ftracker.coppersurfer.tk%3A6969&tr=udp%3A%2F%2Fexodus.desync.com%3A6969","uploader":"MFreaky","categoryP":"video","categoryS":"hd___movies","size":"1071663710","seeders":"5","leechers":"7","description":" <a href=\"https://pichub.site/image/ajJct\" rel=\"nofollow\" target=\"_NEW\">https://pichub.site/image/ajJct</a> <a href=\"\nhttps://pichub.site/image/ajISy\" rel=\"nofollow\" target=\"_NEW\">\nhttps://pichub.site/image/ajISy</a> <a href=\"\nhttps://pichub.site/image/ajY9p\" rel=\"nofollow\" target=\"_NEW\">\nhttps://pichub.site/image/ajY9p</a> <a href=\"\nhttps://pichub.site/image/ajOKb\" rel=\"nofollow\" target=\"_NEW\">\nhttps://pichub.site/image/ajOKb</a> <a href=\"\nhttps://pichub.site/image/ajRX0\" rel=\"nofollow\" target=\"_NEW\">\nhttps://pichub.site/image/ajRX0</a>\r\n\r\nGeneral\r\nFormat                                   : Matroska\r\nFormat version                           : Version 4 / Version 2\r\nFile size                                : 1 022 MiB\r\nDuration                                 : 1 h 50 min\r\nOverall bit rate                         : 1 292 kb/s\r\n\r\nVideo\r\nID                                       : 1\r\nFormat                                   : AVC\r\nFormat/Info                              : Advanced Video Codec\r\nFormat profile                           : High@L3.1\r\nFormat settings                          : CABAC / 4 Ref Frames\r\nFormat settings, CABAC                   : Yes\r\nFormat settings, RefFrames               : 4 frames\r\nCodec ID                                 : V_MPEG4/ISO/AVC\r\nDuration                                 : 1 h 50 min\r\nBit rate                                 : 1 200 kb/s\r\nWidth                                    : 1 280 pixels\r\nHeight                                   : 576 pixels\r\nDisplay aspect ratio                     : 2.222\r\nFrame rate mode                          : Constant\r\nFrame rate                               : 23.976 (23976/1000) FPS\r\nColor space                              : YUV\r\nChroma subsampling                       : 4:2:0\r\nBit depth                                : 8 bits\r\nScan type                                : Progressive\r\nBits/(Pixel*Frame)                       : 0.068\r\nStream size                              : 944 MiB (92%)\r\nWriting library                          : x264 core 148 r2643 5c65704\r\nDefault                                  : Yes\r\nForced                                   : No\r\n\r\nAudio\r\nID                                       : 2\r\nFormat                                   : AAC\r\nFormat/Info                              : Advanced Audio Codec\r\nFormat profile                           : LC\r\nCodec ID                                 : A_AAC-2\r\nDuration                                 : 1 h 50 min\r\nBit rate                                 : 96.0 kb/s\r\nChannel(s)                               : 2 channels\r\nChannel positions                        : Front: L R\r\nSampling rate                            : 48.0 kHz\r\nFrame rate                               : 46.875 FPS (1024 SPF)\r\nCompression mode                         : Lossy\r\nStream size                              : 76.0 MiB (7%)\r\nLanguage                                 : English\r\nDefault                                  : Yes\r\nForced                                   : No","last_updated":"2018-07-19T12:07:15.972Z","parsed":{"xt":"urn:btih:f5db6eee61d4eaf8407d2c750c7d41dfb412094c","dn":"China Salesman 2018 720p BRRip x264 [MW]","tr":["udp://exodus.desync.com:6969","udp://open.demonii.com:1337","udp://tracker.coppersurfer.tk:6969","udp://tracker.leechers-paradise.org:6969","udp://zer0day.ch:1337"],"infoHash":"f5db6eee61d4eaf8407d2c750c7d41dfb412094c","infoHashBuffer":{"type":"Buffer","data":[245,219,110,238,97,212,234,248,64,125,44,117,12,125,65,223,180,18,9,76]},"name":"China Salesman 2018 720p BRRip x264 [MW]","announce":["udp://exodus.desync.com:6969","udp://open.demonii.com:1337","udp://tracker.coppersurfer.tk:6969","udp://tracker.leechers-paradise.org:6969","udp://zer0day.ch:1337"],"urlList":[]}}